<svg width="128" height="128" viewBox="0 0 128 128" fill="none" xmlns="http://www.w3.org/2000/svg">
<g id="ram">
<g id="connections">
<path id="Rectangle 2" d="M33 83C33 81.3431 34.3431 80 36 80H46C47.6569 80 49 81.3431 49 83V114C49 115.657 47.6569 117 46 117H36C34.3431 117 33 115.657 33 114V83Z" fill="#DFBC63"/>
<path id="Rectangle 3" d="M56 83C56 81.3431 57.3431 80 59 80H69C70.6569 80 72 81.3431 72 83V114C72 115.657 70.6569 117 69 117H59C57.3431 117 56 115.657 56 114V83Z" fill="#DFBC63"/>
<rect id="Rectangle 4" x="79" y="80" width="16" height="37" rx="3" fill="#DFBC63"/>
</g>
<g id="connections_2">
<rect id="Rectangle 7" x="101" y="80" width="16" height="37" rx="3" fill="#DFBC63"/>
<path id="Rectangle 6" d="M56 83C56 81.3431 57.3431 80 59 80H69C70.6569 80 72 81.3431 72 83V114C72 115.657 70.6569 117 69 117H59C57.3431 117 56 115.657 56 114V83Z" fill="#DFBC63"/>
<rect id="Rectangle 5" x="11" y="80" width="16" height="37" rx="3" fill="#DFBC63"/>
</g>
<path id="body" d="M0 14C0 12.3431 1.34315 11 3 11H125C126.657 11 128 12.3431 128 14V22.3944C128 23.3975 127.499 24.3342 126.664 24.8906L123.336 27.1094C122.501 27.6658 122 28.6025 122 29.6056V33.5V39.1459C122 40.2822 122.642 41.321 123.658 41.8292L126.342 43.1708C127.358 43.679 128 44.7178 128 45.8541V53V60.6577C128 62.0343 127.063 63.2342 125.728 63.5681L124.272 63.9319C122.937 64.2658 122 65.4657 122 66.8423V72V75.1577C122 76.5343 122.937 77.7342 124.272 78.0681L125.728 78.4319C127.063 78.7658 128 79.9657 128 81.3423V92C128 93.6569 126.657 95 125 95H3C1.34315 95 0 93.6569 0 92V81.3423C0 79.9657 0.936892 78.7658 2.27239 78.4319L3.72761 78.0681C5.06311 77.7342 6 76.5343 6 75.1577V71V66.8423C6 65.4657 5.06311 64.2658 3.72761 63.9319L2.27239 63.5681C0.936891 63.2342 0 62.0343 0 60.6577V53V45.7231C0 44.6561 0.566734 43.6694 1.48839 43.1318L4.51161 41.3682C5.43327 40.8306 6 39.8439 6 38.7769V34V29.6056C6 28.6025 5.4987 27.6658 4.6641 27.1094L1.3359 24.8906C0.501303 24.3342 0 23.3975 0 22.3944V14Z" fill="#2EAD68"/>
<g id="Group 3">
<rect id="inner-box" x="27" y="38" width="20" height="30" rx="5" fill="#2E3751"/>
<rect id="inner-box_2" x="81" y="38" width="20" height="30" rx="5" fill="#2E3751"/>
</g>
</g>
</svg>
