<svg width="128" height="128" viewBox="0 0 128 128" fill="none" xmlns="http://www.w3.org/2000/svg">
<g id="spawner" clip-path="url(#clip0_0_1)">
<path id="Ellipse 1" d="M123.286 38.9747C120.682 55.3924 105.002 66.6314 88.2633 64.0777C71.5245 61.524 60.0658 46.1446 62.6694 29.7269C65.273 13.3092 80.9531 2.07018 97.6919 4.62388C102.598 5.37231 107.05 7.22238 110.827 9.87736L91 28L93 34L99 36L117.922 16.8441C122.431 23.0237 124.571 30.8727 123.286 38.9747Z" fill="#F0F0F0"/>
<path id="Subtract" fill-rule="evenodd" clip-rule="evenodd" d="M1.46212 110.611C-0.509316 112.545 -0.509314 115.68 1.46212 117.614L10.5895 126.566C12.561 128.5 15.7573 128.5 17.7287 126.566L91.9107 53.8066C93.8822 51.8729 93.8822 48.7379 91.9107 46.8043L82.7833 37.8519C80.8119 35.9183 77.6156 35.9183 75.6441 37.8519L1.46212 110.611ZM14.7624 120.091C18.1504 120.091 20.897 117.397 20.897 114.074C20.897 110.751 18.1504 108.057 14.7624 108.057C11.3744 108.057 8.62793 110.751 8.62793 114.074C8.62793 117.397 11.3744 120.091 14.7624 120.091Z" fill="#F0F0F0"/>
</g>
<defs>
<clipPath id="clip0_0_1">
<rect width="128" height="128" fill="white"/>
</clipPath>
</defs>
</svg>
